<svg width="80" height="80" viewBox="0 0 80 80" fill="none" xmlns="http://www.w3.org/2000/svg">
<g clip-path="url(#clip0_50_5)">
<path d="M65 20C64.9062 20 64.8281 20.0312 64.75 20.0312C64.9219 19.2188 65 18.375 65 17.5C65 10.5938 59.4062 5 52.5 5C48.6562 5 45.2656 6.76562 42.9688 9.5C40.0625 3.875 34.2656 0 27.5 0C17.8281 0 10 7.82812 10 17.5C10 18.6406 10.125 19.7344 10.3281 20.8125C4.34375 22.7812 0 28.3594 0 35C0 43.2812 6.71875 50 15 50H65C73.2812 50 80 43.2812 80 35C80 26.7188 73.2812 20 65 20ZM13.75 58.4688C11.75 65.4062 7.5 67.2812 7.5 72.1719C7.5 76.5 10.8594 80 15 80C19.1406 80 22.5 76.5 22.5 72.1719C22.5 67.2656 18.25 65.4375 16.25 58.4688C15.9062 57.2031 14.1406 57.1406 13.75 58.4688ZM38.75 58.4688C36.75 65.4062 32.5 67.2812 32.5 72.1719C32.5 76.5 35.8594 80 40 80C44.1406 80 47.5 76.5 47.5 72.1719C47.5 67.2656 43.25 65.4375 41.25 58.4688C40.9062 57.2031 39.1406 57.1406 38.75 58.4688ZM63.75 58.4688C61.75 65.4062 57.5 67.2812 57.5 72.1719C57.5 76.5 60.8594 80 65 80C69.1406 80 72.5 76.5 72.5 72.1719C72.5 67.2656 68.25 65.4375 66.25 58.4688C65.9062 57.2031 64.1406 57.1406 63.75 58.4688Z" fill="#68a9ff"/>
</g>
<defs>
<clipPath id="clip0_50_5">
<rect width="80" height="80" fill="white"/>
</clipPath>
</defs>
</svg>
