<svg width="85" height="85" viewBox="0 0 85 85" fill="none" xmlns="http://www.w3.org/2000/svg">
<path d="M70.28 53.9813C70.7092 52.8826 70.95 51.6813 70.95 50.4286C70.95 44.9866 66.4484 40.5714 60.9 40.5714C58.8377 40.5714 56.9114 41.1875 55.3202 42.2348C52.4203 37.3062 47.008 34 40.8 34C31.5456 34 24.05 41.3518 24.05 50.4286C24.05 50.7058 24.0605 50.983 24.0709 51.2603C18.2084 53.283 14 58.7661 14 65.2143C14 73.3772 20.7523 80 29.075 80H67.6C75.0014 80 81 74.1165 81 66.8571C81 60.5013 76.3937 55.1929 70.28 53.9813Z" fill="#0094FF"/>
<path d="M40.7058 18.6159L35.2889 22.7696L37.2373 29.3213L31.6063 25.4459L25.9753 29.3213L27.9236 22.7696L22.5067 18.6159L29.3367 18.4232L31.6063 12L33.8758 18.4232L40.7058 18.6159ZM43.318 44.009C45.095 43.8378 47.0006 46.3642 45.8658 47.97C45.1807 48.9335 44.4527 49.8328 43.5535 50.6892C35.1819 59.1036 21.6289 59.1036 13.2787 50.6892C4.9071 42.339 4.9071 28.7646 13.2787 20.4144C14.1351 19.558 15.0344 18.7872 15.9979 18.1021C17.6037 16.9673 20.1301 18.8728 19.9588 20.6499C19.3808 26.7734 21.4362 33.1324 26.1465 37.8213C28.3724 40.0592 31.0673 41.7751 34.0368 42.8452C37.0062 43.9152 40.1762 44.3127 43.318 44.009Z" fill="#0094FF"/>
</svg>
