<svg width="85" height="85" viewBox="0 0 85 85" fill="none" xmlns="http://www.w3.org/2000/svg">
<path d="M62.8646 14.4854L53.9042 21.3562L57.1271 32.1937L47.8125 25.7833L38.4979 32.1937L41.7208 21.3562L32.7604 14.4854L44.0583 14.1666L47.8125 3.54163L51.5667 14.1666L62.8646 14.4854ZM75.2604 38.9583L69.4521 43.3854L71.5417 50.3979L65.5208 46.2541L59.5 50.3979L61.5896 43.3854L55.7812 38.9583L63.0771 38.7812L65.5208 31.875L67.9646 38.7812L75.2604 38.9583ZM67.1854 56.4895C70.125 56.2062 73.2771 60.3854 71.4 63.0416C70.2667 64.6354 69.0625 66.1229 67.575 67.5395C53.7271 81.4583 31.3083 81.4583 17.4958 67.5395C3.64791 53.727 3.64791 31.2729 17.4958 17.4604C18.9125 16.0437 20.4 14.7687 21.9937 13.6354C24.65 11.7583 28.8292 14.9104 28.5458 17.85C27.5896 27.9791 30.9896 38.4979 38.7812 46.2541C42.4632 49.956 46.921 52.7943 51.8329 54.5643C56.7449 56.3343 61.9885 56.9919 67.1854 56.4895ZM61.3771 63.6437C50.9799 63.046 41.1577 58.6764 33.7521 51.3541C26.0667 43.5979 21.9583 33.6458 21.3917 23.6583C11.4396 34.7791 11.8292 51.85 22.4896 62.5458C33.1854 73.2062 50.2562 73.5958 61.3771 63.6437Z" fill="#0094FF"/>
</svg>
