<svg width="85" height="85" viewBox="0 0 85 85" fill="none" xmlns="http://www.w3.org/2000/svg">
<path d="M14.1667 35.4167C13.2274 35.4167 12.3265 35.0436 11.6623 34.3794C10.9981 33.7152 10.625 32.8143 10.625 31.875C10.625 30.9357 10.9981 30.0349 11.6623 29.3707C12.3265 28.7065 13.2274 28.3334 14.1667 28.3334H42.5C44.3786 28.3334 46.1803 27.5871 47.5087 26.2587C48.8371 24.9303 49.5833 23.1287 49.5833 21.25C49.5833 19.3714 48.8371 17.5698 47.5087 16.2414C46.1803 14.913 44.3786 14.1667 42.5 14.1667C40.5521 14.1667 38.7812 14.9459 37.5062 16.2563C37.1839 16.6003 36.7945 16.8745 36.362 17.0619C35.9294 17.2493 35.4631 17.346 34.9917 17.346C34.5203 17.346 34.0539 17.2493 33.6214 17.0619C33.1889 16.8745 32.7994 16.6003 32.4771 16.2563C31.0958 14.875 31.0958 12.6084 32.4771 11.2271C35.0625 8.67712 38.6042 7.08337 42.5 7.08337C46.2572 7.08337 49.8606 8.57593 52.5173 11.2327C55.1741 13.8895 56.6667 17.4928 56.6667 21.25C56.6667 25.0073 55.1741 28.6106 52.5173 31.2674C49.8606 33.9242 46.2572 35.4167 42.5 35.4167H14.1667ZM67.2917 42.5C68.231 42.5 69.1318 42.1269 69.796 41.4627C70.4602 40.7985 70.8333 39.8977 70.8333 38.9584C70.8333 38.0191 70.4602 37.1182 69.796 36.454C69.1318 35.7898 68.231 35.4167 67.2917 35.4167C66.3 35.4167 65.4146 35.8063 64.7771 36.4438C64.4494 36.7721 64.0602 37.0326 63.6318 37.2103C63.2033 37.388 62.744 37.4795 62.2802 37.4795C61.8164 37.4795 61.3571 37.388 60.9286 37.2103C60.5002 37.0326 60.111 36.7721 59.7833 36.4438C58.4375 35.0625 58.4375 32.8313 59.7833 31.45C61.6958 29.5375 64.3521 28.3334 67.2917 28.3334C70.1096 28.3334 72.8121 29.4528 74.8047 31.4454C76.7972 33.4379 77.9167 36.1404 77.9167 38.9584C77.9167 41.7763 76.7972 44.4788 74.8047 46.4714C72.8121 48.464 70.1096 49.5834 67.2917 49.5834H17.7083C16.769 49.5834 15.8682 49.2102 15.204 48.546C14.5398 47.8819 14.1667 46.981 14.1667 46.0417C14.1667 45.1024 14.5398 44.2016 15.204 43.5374C15.8682 42.8732 16.769 42.5 17.7083 42.5H67.2917ZM63.75 63.75H14.1667C13.2274 63.75 12.3265 63.3769 11.6623 62.7127C10.9981 62.0485 10.625 61.1477 10.625 60.2084C10.625 59.2691 10.9981 58.3682 11.6623 57.704C12.3265 57.0398 13.2274 56.6667 14.1667 56.6667H63.75C66.5679 56.6667 69.2704 57.7861 71.263 59.7787C73.2556 61.7713 74.375 64.4738 74.375 67.2917C74.375 70.1096 73.2556 72.8121 71.263 74.8047C69.2704 76.7973 66.5679 77.9167 63.75 77.9167C60.8104 77.9167 58.1542 76.7125 56.2417 74.8C54.8958 73.4188 54.8958 71.1875 56.2417 69.8063C56.5693 69.478 56.9585 69.2175 57.387 69.0398C57.8154 68.862 58.2747 68.7706 58.7385 68.7706C59.2024 68.7706 59.6617 68.862 60.0901 69.0398C60.5186 69.2175 60.9078 69.478 61.2354 69.8063C61.8729 70.4438 62.7583 70.8334 63.75 70.8334C64.6893 70.8334 65.5901 70.4602 66.2543 69.796C66.9185 69.1319 67.2917 68.231 67.2917 67.2917C67.2917 66.3524 66.9185 65.4516 66.2543 64.7874C65.5901 64.1232 64.6893 63.75 63.75 63.75Z" fill="#0094FF"/>
</svg>
