<svg width="85" height="85" viewBox="0 0 85 85" fill="none" xmlns="http://www.w3.org/2000/svg">
<path d="M11 53H46C46.9283 53 47.8185 53.3688 48.4749 54.0251C49.1312 54.6815 49.5 55.5717 49.5 56.5C49.5 57.4283 49.1312 58.3185 48.4749 58.9749C47.8185 59.6312 46.9283 60 46 60H11C10.0717 60 9.1815 59.6312 8.52513 58.9749C7.86875 58.3185 7.5 57.4283 7.5 56.5C7.5 55.5717 7.86875 54.6815 8.52513 54.0251C9.1815 53.3688 10.0717 53 11 53ZM56.5 53H74C74.9283 53 75.8185 53.3688 76.4749 54.0251C77.1313 54.6815 77.5 55.5717 77.5 56.5C77.5 57.4283 77.1313 58.3185 76.4749 58.9749C75.8185 59.6312 74.9283 60 74 60H56.5C55.5717 60 54.6815 59.6312 54.0251 58.9749C53.3688 58.3185 53 57.4283 53 56.5C53 55.5717 53.3688 54.6815 54.0251 54.0251C54.6815 53.3688 55.5717 53 56.5 53ZM4 42.5C4 37.8587 5.84374 33.4075 9.12563 30.1256C12.4075 26.8437 16.8587 25 21.5 25C25 16.775 33.05 11 42.5 11C54.505 11 64.34 20.31 65.25 32.105L67 32C74.665 32 80.895 38.16 81 46H74C74 44.1435 73.2625 42.363 71.9497 41.0503C70.637 39.7375 68.8565 39 67 39H60V35.5C60 30.8587 58.1563 26.4075 54.8744 23.1256C51.5925 19.8437 47.1413 18 42.5 18C33.75 18 26.575 24.37 25.21 32.665C24.055 32.245 22.795 32 21.5 32C18.7152 32 16.0445 33.1062 14.0754 35.0754C12.1062 37.0445 11 39.7152 11 42.5C10.9982 43.692 11.1994 44.8756 11.595 46H4.35L4 42.5ZM11 67H18C18.9283 67 19.8185 67.3687 20.4749 68.0251C21.1313 68.6815 21.5 69.5717 21.5 70.5C21.5 71.4283 21.1313 72.3185 20.4749 72.9749C19.8185 73.6313 18.9283 74 18 74H11C10.0717 74 9.1815 73.6313 8.52513 72.9749C7.86875 72.3185 7.5 71.4283 7.5 70.5C7.5 69.5717 7.86875 68.6815 8.52513 68.0251C9.1815 67.3687 10.0717 67 11 67ZM28.5 67H74C74.9283 67 75.8185 67.3687 76.4749 68.0251C77.1313 68.6815 77.5 69.5717 77.5 70.5C77.5 71.4283 77.1313 72.3185 76.4749 72.9749C75.8185 73.6313 74.9283 74 74 74H28.5C27.5717 74 26.6815 73.6313 26.0251 72.9749C25.3687 72.3185 25 71.4283 25 70.5C25 69.5717 25.3687 68.6815 26.0251 68.0251C26.6815 67.3687 27.5717 67 28.5 67Z" fill="#0094FF"/>
</svg>
