<svg width="80" height="80" viewBox="0 0 80 80" fill="none" xmlns="http://www.w3.org/2000/svg">
<g clip-path="url(#clip0_50_3)">
<path d="M28.7342 57.8281C27.5467 57.1406 26.0155 57.5469 25.328 58.7656L15.328 76.2656C14.6405 77.4688 15.0623 79 16.2655 79.6719C16.6561 79.8906 17.078 80 17.4998 80C18.3592 80 19.203 79.5469 19.6717 78.7344L29.6717 61.2344C30.3592 60.0469 29.9373 58.5156 28.7342 57.8281ZM43.7342 57.8281C42.5467 57.1406 41.0155 57.5469 40.328 58.7656L30.328 76.2656C29.6405 77.4688 30.0623 79 31.2655 79.6719C31.6561 79.8906 32.078 80 32.4998 80C33.3592 80 34.203 79.5469 34.6717 78.7344L44.6717 61.2344C45.3592 60.0469 44.9373 58.5156 43.7342 57.8281ZM13.7342 57.8281C12.5467 57.1406 11.0155 57.5469 10.328 58.7656L0.327969 76.2656C-0.359531 77.4688 0.062344 79 1.26547 79.6719C1.65609 79.8906 2.07797 80 2.49984 80C3.35922 80 4.20297 79.5469 4.67172 78.7344L14.6717 61.2344C15.3592 60.0469 14.9373 58.5156 13.7342 57.8281ZM73.7342 57.8281C72.5467 57.1406 71.0155 57.5469 70.328 58.7656L60.328 76.2656C59.6405 77.4688 60.0623 79 61.2655 79.6719C61.6561 79.8906 62.078 80 62.4998 80C63.3592 80 64.203 79.5469 64.6717 78.7344L74.6717 61.2344C75.3592 60.0469 74.9373 58.5156 73.7342 57.8281ZM58.7342 57.8281C57.5467 57.1406 56.0155 57.5469 55.328 58.7656L45.328 76.2656C44.6405 77.4688 45.0623 79 46.2655 79.6719C46.6561 79.8906 47.078 80 47.4998 80C48.3592 80 49.203 79.5469 49.6717 78.7344L59.6717 61.2344C60.3592 60.0469 59.9373 58.5156 58.7342 57.8281ZM64.9998 20C64.9061 20 64.828 20.0312 64.7498 20.0312C64.9217 19.2188 64.9998 18.375 64.9998 17.5C64.9998 10.5938 59.4061 5 52.4998 5C48.6561 5 45.2655 6.76562 42.9686 9.5C40.0623 3.875 34.2655 0 27.4998 0C17.8436 0 9.99984 7.82812 9.99984 17.5C9.99984 18.6406 10.1248 19.7344 10.328 20.8125C4.34359 22.7812 -0.000156139 28.3594 -0.000156139 35C-0.000156139 43.2812 6.71859 50 14.9998 50H64.9998C73.2811 50 79.9998 43.2812 79.9998 35C79.9998 26.7188 73.2811 20 64.9998 20Z" fill="#0094FF"/>
</g>
<defs>
<clipPath id="clip0_50_3">
<rect width="80" height="80" fill="white"/>
</clipPath>
</defs>
</svg>
