<svg width="70" height="80" viewBox="0 0 70 80" fill="none" xmlns="http://www.w3.org/2000/svg">
<g clip-path="url(#clip0_24_58)">
<path d="M68.7657 55.5L62.6407 51.9062L67.9688 50.4531C69.2813 50.0938 70.0626 48.7188 69.7032 47.3906L69.0626 44.9688C68.7188 43.6406 67.3594 42.8438 66.0469 43.2031L53.5938 46.5938L42.3751 40L53.6094 33.4062L66.0626 36.7969C67.3751 37.1562 68.7188 36.3594 69.0782 35.0312L69.7188 32.6094C70.0626 31.2812 69.2969 29.9062 67.9844 29.5469L62.6563 28.0938L68.7813 24.5C69.9532 23.8125 70.3594 22.2812 69.6876 21.0781L68.4532 18.9062C67.7813 17.7031 66.2657 17.2969 65.0938 17.9844L58.9688 21.5781L60.3907 16.1562C60.7344 14.8281 59.9688 13.4531 58.6563 13.0938L56.2813 12.4531C54.9688 12.0938 53.6251 12.8906 53.2657 14.2188L49.9376 26.875L38.7032 33.4688V20.2656L47.8126 11C48.7657 10.0312 48.7657 8.4375 47.8126 7.46875L46.0782 5.70312C45.1251 4.73438 43.5626 4.73438 42.6094 5.70312L38.7188 9.67188V2.5C38.7188 1.125 37.6251 0 36.2657 0H33.8126C32.4532 0 31.3594 1.125 31.3594 2.5V9.70312L27.4688 5.73438C26.5157 4.76562 24.9532 4.76562 24.0001 5.73438L22.2032 7.5C21.2501 8.46875 21.2501 10.0625 22.2032 11.0312L31.3126 20.2969V33.5L20.0782 26.9062L16.7501 14.25C16.4063 12.9219 15.0469 12.125 13.7344 12.4844L11.3594 13.125C10.0469 13.4844 9.26569 14.8594 9.62507 16.1875L11.0469 21.6094L4.92194 18.0156C3.75007 17.3281 2.25007 17.7344 1.56257 18.9375L0.328194 21.1094C-0.343681 22.3125 0.0469438 23.8281 1.23444 24.5312L7.35944 28.125L2.03132 29.5469C0.718819 29.9062 -0.0624312 31.2812 0.296944 32.6094L0.937569 35.0312C1.28132 36.3594 2.64069 37.1562 3.95319 36.7969L16.4063 33.4062L27.6407 40L16.4063 46.5938L3.95319 43.2031C2.64069 42.8438 1.29694 43.6406 0.937569 44.9688L0.296944 47.3906C-0.0468062 48.7188 0.718819 50.0938 2.03132 50.4531L7.35944 51.9062L1.23444 55.5C0.0625688 56.1875 -0.343681 57.7188 0.328194 58.9219L1.56257 61.0938C2.23444 62.2969 3.75007 62.7031 4.92194 62.0156L11.0469 58.4219L9.62507 63.8438C9.28132 65.1719 10.0469 66.5469 11.3594 66.9062L13.7344 67.5469C15.0469 67.9062 16.3907 67.1094 16.7501 65.7812L20.0782 53.125L31.3126 46.5312V59.7344L22.2032 69C21.2501 69.9688 21.2501 71.5625 22.2032 72.5312L23.9376 74.2969C24.8907 75.2656 26.4532 75.2656 27.4063 74.2969L31.2969 70.3281V77.5C31.2969 78.875 32.3907 80 33.7501 80H36.2032C37.5626 80 38.6563 78.875 38.6563 77.5V70.2969L42.5469 74.2656C43.5001 75.2344 45.0626 75.2344 46.0157 74.2656L47.7501 72.5C48.7032 71.5312 48.7032 69.9375 47.7501 68.9688L38.6407 59.7031V46.5L49.8751 53.0938L53.2032 65.75C53.5469 67.0781 54.9063 67.875 56.2188 67.5156L58.5938 66.875C59.9063 66.5156 60.6876 65.1406 60.3282 63.8125L58.9063 58.3906L65.0313 61.9844C66.2032 62.6719 67.7032 62.2656 68.3907 61.0625L69.6251 58.8906C70.3438 57.7188 69.9532 56.1875 68.7657 55.5Z" fill="#68a9ff"/>
</g>
<defs>
<clipPath id="clip0_24_58">
<rect width="70" height="80" fill="white"/>
</clipPath>
</defs>
</svg>
