<svg width="85" height="85" viewBox="0 0 85 85" fill="none" xmlns="http://www.w3.org/2000/svg">
<g clip-path="url(#clip0_28_25)">
<path d="M21.4271 14.6625L20.0459 13.2813C18.6646 11.9 16.4334 11.9354 15.0875 13.2813L15.0521 13.3167C13.6709 14.6979 13.6709 16.9292 15.0521 18.275L16.4334 19.6563C17.8146 21.0375 20.0104 21.0375 21.3917 19.6563L21.4271 19.6208C22.8084 18.275 22.8084 16.0083 21.4271 14.6625ZM10.6604 37.1875H7.04794C5.10002 37.1875 3.54169 38.7458 3.54169 40.6938V40.7292C3.54169 42.6771 5.10002 44.2354 7.04794 44.2354H10.625C12.6084 44.2708 14.1667 42.7125 14.1667 40.7646V40.7292C14.1667 38.7458 12.6084 37.1875 10.6604 37.1875ZM42.5354 1.94793H42.5C40.5167 1.94793 38.9584 3.50626 38.9584 5.45418V8.85418C38.9584 10.8021 40.5167 12.3604 42.4646 12.3604H42.5C44.4834 12.3958 46.0417 10.8375 46.0417 8.88959V5.45418C46.0417 3.50626 44.4834 1.94793 42.5354 1.94793ZM69.9479 13.3167C68.5667 11.9354 66.3354 11.9354 64.9542 13.2813L63.5729 14.6625C62.1917 16.0438 62.1917 18.275 63.5729 19.6208L63.6084 19.6563C64.9896 21.0375 67.2209 21.0375 68.5667 19.6563L69.9479 18.275C71.3292 16.8938 71.3292 14.6979 69.9479 13.3167ZM63.5375 66.7959L64.9188 68.1771C66.3 69.5584 68.5313 69.5584 69.9125 68.1771C71.2938 66.7959 71.2938 64.5646 69.9125 63.1834L68.5313 61.8021C67.15 60.4209 64.9188 60.4563 63.5729 61.8021C62.1563 63.2188 62.1563 65.4146 63.5375 66.7959ZM70.8334 40.6938V40.7292C70.8334 42.6771 72.3917 44.2354 74.3396 44.2354H77.9167C79.8646 44.2354 81.4229 42.6771 81.4229 40.7292V40.6938C81.4229 38.7458 79.8646 37.1875 77.9167 37.1875H74.3396C72.3917 37.1875 70.8334 38.7458 70.8334 40.6938ZM42.5 19.4792C30.7771 19.4792 21.25 29.0063 21.25 40.7292C21.25 52.4521 30.7771 61.9792 42.5 61.9792C54.2229 61.9792 63.75 52.4521 63.75 40.7292C63.75 29.0063 54.2229 19.4792 42.5 19.4792ZM42.4646 79.5104H42.5C44.4479 79.5104 46.0063 77.9521 46.0063 76.0042V72.6042C46.0063 70.6563 44.4479 69.0979 42.5 69.0979H42.4646C40.5167 69.0979 38.9584 70.6563 38.9584 72.6042V76.0042C38.9584 77.9521 40.5167 79.5104 42.4646 79.5104ZM15.0521 68.1417C16.4334 69.5229 18.6646 69.5229 20.0459 68.1417L21.4271 66.7604C22.8084 65.3792 22.7729 63.1479 21.4271 61.8021L21.3917 61.7667C20.0104 60.3854 17.7792 60.3854 16.3979 61.7667L15.0167 63.1479C13.6709 64.5646 13.6709 66.7604 15.0521 68.1417Z" fill="#68a9ff"/>
</g>
<defs>
<clipPath id="clip0_28_25">
<rect width="85" height="85" fill="white"/>
</clipPath>
</defs>
</svg>
