<svg width="85" height="68" viewBox="0 0 85 68" fill="none" xmlns="http://www.w3.org/2000/svg">
<path d="M71.4 30.0953C71.9445 28.6742 72.25 27.1203 72.25 25.5C72.25 18.4609 66.5391 12.75 59.5 12.75C56.8836 12.75 54.4398 13.5469 52.4211 14.9016C48.7422 8.52656 41.8758 4.25 34 4.25C22.2594 4.25 12.75 13.7594 12.75 25.5C12.75 25.8586 12.7633 26.2172 12.7766 26.5758C5.33906 29.1922 0 36.2844 0 44.625C0 55.1836 8.56641 63.75 19.125 63.75H68C77.3898 63.75 85 56.1398 85 46.75C85 38.5289 79.1562 31.6625 71.4 30.0953Z" fill="#0094FF"/>
</svg>
