<svg width="85" height="85" viewBox="0 0 85 85" fill="none" xmlns="http://www.w3.org/2000/svg">
<path d="M70.28 53.9813C70.7092 52.8826 70.95 51.6813 70.95 50.4286C70.95 44.9866 66.4484 40.5714 60.9 40.5714C58.8377 40.5714 56.9114 41.1875 55.3202 42.2348C52.4203 37.3062 47.008 34 40.8 34C31.5456 34 24.05 41.3518 24.05 50.4286C24.05 50.7058 24.0605 50.983 24.0709 51.2603C18.2084 53.283 14 58.7661 14 65.2143C14 73.3772 20.7523 80 29.075 80H67.6C75.0014 80 81 74.1165 81 66.8571C81 60.5013 76.3937 55.1929 70.28 53.9813Z" fill="#0094FF"/>
<path d="M16.0232 16.8685L15.1719 16.0137C14.3206 15.1589 12.9454 15.1808 12.116 16.0137L12.0941 16.0356C11.2428 16.8904 11.2428 18.2712 12.0941 19.1041L12.9454 19.9589C13.7967 20.8137 15.1501 20.8137 16.0014 19.9589L16.0232 19.937C16.8745 19.1041 16.8745 17.7014 16.0232 16.8685V16.8685ZM9.38745 30.8082H7.16098C5.96044 30.8082 5 31.7726 5 32.9781V33C5 34.2055 5.96044 35.1699 7.16098 35.1699H9.36562C10.588 35.1918 11.5484 34.2274 11.5484 33.0219V33C11.5484 31.7726 10.588 30.8082 9.38745 30.8082ZM29.0327 9H29.0109C27.7885 9 26.8281 9.96438 26.8281 11.1699V13.274C26.8281 14.4795 27.7885 15.4438 28.9891 15.4438H29.0109C30.2333 15.4658 31.1937 14.5014 31.1937 13.2959V11.1699C31.1937 9.96438 30.2333 9 29.0327 9V9ZM45.9277 16.0356C45.0764 15.1808 43.7012 15.1808 42.8499 16.0137L41.9986 16.8685C41.1473 17.7233 41.1473 19.1041 41.9986 19.937L42.0205 19.9589C42.8718 20.8137 44.2469 20.8137 45.0764 19.9589L45.9277 19.1041C46.779 18.2493 46.779 16.8904 45.9277 16.0356V16.0356ZM41.9768 49.1315L42.8281 49.9863C43.6794 50.8411 45.0546 50.8411 45.9059 49.9863C46.7572 49.1315 46.7572 47.7507 45.9059 46.8959L45.0546 46.0411C44.2033 45.1863 42.8281 45.2082 41.9986 46.0411C41.1255 46.9178 41.1255 48.2767 41.9768 49.1315ZM46.4734 32.9781V33C46.4734 34.2055 47.4338 35.1699 48.6344 35.1699H50.839C52.0396 35.1699 53 34.2055 53 33V32.9781C53 31.7726 52.0396 30.8082 50.839 30.8082H48.6344C47.4338 30.8082 46.4734 31.7726 46.4734 32.9781ZM29.0109 19.8493C21.7858 19.8493 15.9141 25.7452 15.9141 33C15.9141 40.2548 21.7858 46.1507 29.0109 46.1507C36.236 46.1507 42.1078 40.2548 42.1078 33C42.1078 25.7452 36.236 19.8493 29.0109 19.8493ZM28.9891 57H29.0109C30.2115 57 31.1719 56.0356 31.1719 54.8301V52.726C31.1719 51.5205 30.2115 50.5562 29.0109 50.5562H28.9891C27.7885 50.5562 26.8281 51.5205 26.8281 52.726V54.8301C26.8281 56.0356 27.7885 57 28.9891 57ZM12.0941 49.9644C12.9454 50.8192 14.3206 50.8192 15.1719 49.9644L16.0232 49.1096C16.8745 48.2548 16.8527 46.874 16.0232 46.0411L16.0014 46.0192C15.1501 45.1644 13.7749 45.1644 12.9236 46.0192L12.0723 46.874C11.2428 47.7507 11.2428 49.1096 12.0941 49.9644Z" fill="#0094FF"/>
</svg>
